<?xml version="1.0" encoding="utf-8"?>
<!-- Generator: Adobe Illustrator 21.0.2, SVG Export Plug-In . SVG Version: 6.00 Build 0)  -->
<svg version="1.1" id="Calque_1" xmlns="http://www.w3.org/2000/svg" xmlns:xlink="http://www.w3.org/1999/xlink" x="0px" y="0px"
	 viewBox="0 0 849 339" style="enable-background:new 0 0 849 339;" xml:space="preserve">
<style type="text/css">
	.st0{fill:url(#SVGID_1_);}
	.st1{fill:url(#SVGID_2_);}
	.st2{fill:url(#SVGID_3_);}
	.st3{fill:url(#SVGID_4_);}
	.st4{fill:#A1D8E8;}
	.st5{opacity:0.8;}
	.st6{fill:#D7DADD;}
	.st7{fill:#95999B;}
	.st8{fill:#1E1918;}
	.st9{fill:#2B2D2D;}
	.st10{fill:#EFEFED;}
	.st11{fill:#FFFFFF;}
	.st12{fill:#E73231;}
</style>
<g>
	
		<linearGradient id="SVGID_1_" gradientUnits="userSpaceOnUse" x1="350.7344" y1="-57.7561" x2="375.0298" y2="-100.1761" gradientTransform="matrix(0.7104 -0.7038 0.7038 0.7104 113.437 365.1801)">
		<stop  offset="0" style="stop-color:#FCEA10"/>
		<stop  offset="0.1278" style="stop-color:#FADB1E"/>
		<stop  offset="0.4013" style="stop-color:#F4AE2B"/>
		<stop  offset="0.7957" style="stop-color:#E9562D"/>
		<stop  offset="0.9135" style="stop-color:#E6332A"/>
	</linearGradient>
	<path class="st0" d="M233.2,26c28.9,11.1,44.5,24,61.1,45.3l92.5-32.5"/>
	
		<linearGradient id="SVGID_2_" gradientUnits="userSpaceOnUse" x1="355.2913" y1="-65.7125" x2="376.611" y2="-102.937" gradientTransform="matrix(0.7104 -0.7038 0.7038 0.7104 113.437 365.1801)">
		<stop  offset="0" style="stop-color:#FCEA10"/>
		<stop  offset="0.1278" style="stop-color:#FADB1E"/>
		<stop  offset="0.4013" style="stop-color:#F4AE2B"/>
		<stop  offset="0.7957" style="stop-color:#E9562D"/>
		<stop  offset="0.9135" style="stop-color:#E6332A"/>
	</linearGradient>
	<path class="st1" d="M386.8,38.7C303.6-0.4,233.2,26,233.2,26"/>
	
		<linearGradient id="SVGID_3_" gradientUnits="userSpaceOnUse" x1="383.0247" y1="-82.923" x2="368.2193" y2="-34.5073" gradientTransform="matrix(0.7104 -0.7038 0.7038 0.7104 113.437 365.1801)">
		<stop  offset="0" style="stop-color:#FCEA10"/>
		<stop  offset="0.1278" style="stop-color:#FADB1E"/>
		<stop  offset="0.4013" style="stop-color:#F4AE2B"/>
		<stop  offset="0.7957" style="stop-color:#E9562D"/>
		<stop  offset="0.9135" style="stop-color:#E6332A"/>
	</linearGradient>
	<path class="st2" d="M387,40.2l-91.4,33.5c14.4,18.8,19.5,39.7,21.7,54.6"/>
	
		<linearGradient id="SVGID_4_" gradientUnits="userSpaceOnUse" x1="378.1104" y1="-66.8524" x2="366.5587" y2="-29.0771" gradientTransform="matrix(0.7104 -0.7038 0.7038 0.7104 113.437 365.1801)">
		<stop  offset="0" style="stop-color:#FCEA10"/>
		<stop  offset="0.1278" style="stop-color:#FADB1E"/>
		<stop  offset="0.4013" style="stop-color:#F4AE2B"/>
		<stop  offset="0.7957" style="stop-color:#E9562D"/>
		<stop  offset="0.9135" style="stop-color:#E6332A"/>
	</linearGradient>
	<path class="st3" d="M317.3,128.3C358.8,91.1,387,40.2,387,40.2"/>
</g>
<g>
	<path class="st4" d="M351.7,214.2"/>
</g>
<g class="st5">
	<path class="st6" d="M73,274.4c0,0,115.9,43,209.8-78.1c69.9-115.9-82-231-174-130.2C20.2,169.3,73,274.4,73,274.4z"/>
</g>
<g class="st5">
	<path class="st7" d="M205,318.8c0,0,112.4-51.5,93.1-203.5C286.8,60,236.9,29,195.8,27.6C141,24.2,79.5,69.5,83,146.2
		C93.3,281.8,205,318.8,205,318.8z"/>
</g>
<g class="st5">
	<path class="st8" d="M9.6,150c0,0,51.5,112.4,203.5,93.1c55.3-11.3,86.3-61.2,87.7-102.3C304.2,86,258.9,24.5,182.2,28
		C46.6,38.3,9.6,150,9.6,150z"/>
</g>
<g>
	<g>
		<path class="st9" d="M358.4,157.3h22.3c14.3,0,24.9,4.4,24.9,17.2c0,6.6-3.7,13-12,15.2v0.4c10,1.7,15.7,7.2,15.7,16.6
			c0,14-11.4,20.5-26.8,20.5h-24.2V157.3z M379.5,186.3c9.8,0,13.9-3.7,13.9-10.3c0-6.4-4.5-9.1-13.6-9.1h-9.1v19.3H379.5z
			 M381.2,217.6c10.3,0,15.9-3.8,15.9-11.8c0-7.3-5.6-10.7-15.9-10.7h-10.5v22.4H381.2z"/>
	</g>
	<g>
		<path class="st9" d="M442.4,173.5c13.1,0,25,10,25,27.6c0,17.4-11.9,27.5-25,27.5c-13,0-24.9-10-24.9-27.5
			C417.5,183.5,429.3,173.5,442.4,173.5z M442.4,218.5c7.7,0,12.4-6.9,12.4-17.4c0-10.6-4.7-17.5-12.4-17.5
			c-7.7,0-12.3,6.9-12.3,17.5C430.1,211.5,434.7,218.5,442.4,218.5z"/>
	</g>
	<g>
		<path class="st9" d="M479.6,174.7h10.2l0.9,9.3h0.4c3.7-6.8,9.3-10.6,14.9-10.6c2.7,0,4.4,0.3,6,1.1l-2.1,10.7
			c-1.8-0.5-3.2-0.9-5.5-0.9c-4.2,0-9.2,2.9-12.4,10.8v32.1h-12.3V174.7z"/>
	</g>
	<g>
		<path class="st9" d="M537.4,173.5c6,0,9.7,2.2,13.8,5.8l-0.4-8.4v-19h12.3v75.5h-10.2l-0.9-5.7h-0.4c-3.8,3.8-9.2,6.9-14.9,6.9
			c-13.1,0-21.6-10.2-21.6-27.5C515.2,183.9,526,173.5,537.4,173.5z M539.8,218.3c4.1,0,7.5-1.8,11-5.9V188
			c-3.6-3.2-7.2-4.4-10.7-4.4c-6.7,0-12.2,6.3-12.2,17.3C527.9,212.3,532.2,218.3,539.8,218.3z"/>
	</g>
	<g>
		<path class="st9" d="M599.4,173.5c14.2,0,21.7,10.3,21.7,24.9c0,2.4-0.2,4.5-0.5,5.8h-33.3c1.1,9.5,7.1,14.9,15.5,14.9
			c4.5,0,8.3-1.4,12.2-3.8l4.2,7.7c-5,3.3-11.3,5.7-18,5.7c-14.5,0-25.9-10.2-25.9-27.5C575.3,183.9,587.1,173.5,599.4,173.5z
			 M610.4,196.3c0-8.3-3.5-13.4-10.7-13.4c-6.2,0-11.5,4.6-12.6,13.4H610.4z"/>
	</g>
	<g>
		<path class="st9" d="M660.2,193.7c-0.1-5.6-2.5-10.3-9.5-10.3c-5.2,0-10.2,2.4-14.8,5.1l-4.5-8.2c5.8-3.6,13.1-6.8,21.5-6.8
			c13.1,0,19.6,8,19.6,22.7v31.1h-10l-1-5.8h-0.3c-4.7,4-10,7.1-16.2,7.1c-9.2,0-15.6-6.2-15.6-15.4
			C629.4,201.9,638.8,196,660.2,193.7z M648.8,218.9c4.3,0,7.6-2.1,11.4-5.8v-11.8c-14.2,1.8-18.9,5.6-18.9,10.8
			C641.3,216.9,644.4,218.9,648.8,218.9z"/>
	</g>
	<g>
		<path class="st9" d="M807,199.9l-15.6-25.1h13.3l5.9,9.9c1.5,2.9,3.2,6,4.8,8.9h0.4c1.3-2.9,2.8-6,4.1-8.9l5-9.9h12.7L822,201.2
			l16.7,26h-13.3l-6.4-10.4c-1.7-3.1-3.5-6.3-5.3-9.3h-0.4c-1.5,3-3.1,6.1-4.6,9.3l-5.6,10.4h-12.8L807,199.9z"/>
	</g>
</g>
<g>
	<path class="st9" d="M311.1,303.4c2.4,4.5,5.8,6.6,8.8,6.6c4.9,0,7.7-2.4,7.7-11.1v-43.8h18.4v45.3c0,13.9-7.5,25.4-23.5,25.4
		c-11.3,0-18.6-4.3-23.7-13.1L311.1,303.4z"/>
	<path class="st9" d="M360.5,255.1h18.4v38.1c0,12.4,3.2,16.9,10.5,16.9c7.3,0,10.7-4.5,10.7-16.9v-38.1h17.7V291
		c0,23.7-9,34.8-28.4,34.8c-19.5,0-28.9-11.1-28.9-34.8V255.1z"/>
	<path class="st9" d="M464.8,253.8c9.8,0,17.3,4.3,22.2,9.2l-10,11.3c-3.4-3-6.4-4.7-12-4.7c-9.4,0-16.5,7.5-16.5,20.1
		c0,13,5.8,20.3,18.2,20.3c1.9,0,4.1-0.4,5.3-1.3v-9.6h-10.3v-15h26.5v33.1c-5.1,4.3-14.1,8.6-23.9,8.6c-19,0-34.6-11.8-34.6-35.5
		C429.8,267.1,445.8,253.8,464.8,253.8z"/>
</g>
<g>
	
		<ellipse transform="matrix(0.9718 -0.2356 0.2356 0.9718 -21.9053 53.7085)" class="st10" cx="213.8" cy="118.5" rx="23.5" ry="33.1"/>
</g>
<g class="st5">
	<path class="st8" d="M189.8,110.6c0,0,32.5-18.6,32.2,39.9c0,0-7.1,2.7-15.6-3C198.6,142.8,188.7,128.7,189.8,110.6z"/>
</g>
<g>
	<path class="st11" d="M198.3,133.3c11.6-6.2,16.1-8.4,16.1-8.4s-6.1-16.5-16.1-12C188.3,117.4,198.3,133.3,198.3,133.3z"/>
</g>
<g>
	<path class="st9" d="M684.5,174.8"/>
</g>
<g>
	<path class="st9" d="M727.3,252.1c1.3,13.7,1.4,29.2,0.1,44.7c-0.6,7.2-4.1,12.3-10.3,15.3c-2.2,1-4.5,1.9-6.7,2.8
		c-1.1,0.4-2.1,0.8-3.2,1.3c-0.7,0.3-1.5,0.6-2.2,0.9c-1.8,0.7-3.8,1.5-5.6,2.4c-3.2,1.5-3.3,3.9-3,5.2l0.2,1.2h75.1l0.2-1.3
		c0.3-2.1-0.6-3.9-2.7-4.9c-1.3-0.7-2.7-1.4-4.2-2c-1.6-0.6-3.1-1.2-4.7-1.7c-2-0.7-4.1-1.5-6.1-2.3c-8.7-3.5-13.1-9.4-13.5-17.9
		c-0.1-2-0.2-4-0.3-6c-0.2-3.7-0.4-7.4-0.4-11.1c0.1-8.4,0.6-18,1.1-26.5"/>
</g>
<g>
	<path class="st12" d="M738,150.2c9.1,10.4-2.4,19.8-2.4,19.8s23-11.9,12.5-26.8c-9.9-13.9-17.5-20.8,23.5-44.5
		C771.6,98.7,707.3,114.8,738,150.2L738,150.2z"/>
</g>
<g>
	<path class="st12" d="M748.1,60.3c0,0,19.5,19.5-18.5,49.6c-30.5,24.1-7,37.8,0,53.6c-17.8-16.1-30.9-30.2-22.1-43.4
		C720.3,100.7,756,91.4,748.1,60.3L748.1,60.3z"/>
</g>
<path class="st9" d="M772.7,162.8l-0.3-0.4l-13.7,0l0.9,1.4c5.3,7.9,11.4,24.4,11.4,33.8c0,24-16.7,43.4-37.3,43.4
	s-37.3-19.5-37.3-43.4c0-9.5,6.1-26.1,11.4-33.9l0.9-1.4h-13.7l-0.3,0.4c-6.8,10.1-10.3,22.2-10.3,34.9c0,29.2,18.9,53.6,44,56.6
	l0.1-0.9c0,0,0,0,0,0h10.1l0,0l0.1,0.9c25.1-3,44-27.4,44-56.6C782.9,184.9,779.4,172.9,772.7,162.8z"/>
<g>
	<path class="st12" d="M703.9,203.1c2,17.3,14.8,30.7,30.2,30.7c14,0,25.7-10.9,29.4-25.8c1.2-5.1,2.7-12.1-3.3-13.2
		c-2.1-0.4-3.5,0.7-5.1,1.8c-4.2,2.7-8.4,6.2-13.3,5.1c-6.4-1.4-11.5-6.1-17.9-7.3c-4.4-0.8-8.7-0.7-13,0.4c-2,0.5-4,1.8-5.8,3
		C703.1,199.1,703.6,200.3,703.9,203.1z"/>
</g>
</svg>
