<?xml version="1.0" encoding="utf-8"?>
<!-- Generator: Adobe Illustrator 21.0.2, SVG Export Plug-In . SVG Version: 6.00 Build 0)  -->
<svg version="1.1" id="Calque_1" xmlns="http://www.w3.org/2000/svg" xmlns:xlink="http://www.w3.org/1999/xlink" x="0px" y="0px"
	 viewBox="0 0 800 800" style="enable-background:new 0 0 800 800;" xml:space="preserve">
<style type="text/css">
	.st0{fill:url(#SVGID_1_);}
	.st1{fill:url(#SVGID_2_);}
	.st2{fill:url(#SVGID_3_);}
	.st3{fill:url(#SVGID_4_);}
	.st4{opacity:0.8;}
	.st5{fill:#D7DADD;}
	.st6{fill:#95999B;}
	.st7{fill:#1E1918;}
	.st8{fill:#EFEFED;}
	.st9{fill:#FFFFFF;}
</style>
<g>
	
		<linearGradient id="SVGID_1_" gradientUnits="userSpaceOnUse" x1="652.1494" y1="362.8044" x2="703.655" y2="272.8747" gradientTransform="matrix(0.7104 -0.7038 0.7038 0.7104 -56.498 416.1743)">
		<stop  offset="0" style="stop-color:#FCEA10"/>
		<stop  offset="0.1278" style="stop-color:#FADB1E"/>
		<stop  offset="0.4013" style="stop-color:#F4AE2B"/>
		<stop  offset="0.7957" style="stop-color:#E9562D"/>
		<stop  offset="0.9135" style="stop-color:#E6332A"/>
	</linearGradient>
	<path class="st0" d="M474,106.1c61.4,23.6,94.3,50.9,129.5,96l196.1-68.9"/>
	
		<linearGradient id="SVGID_2_" gradientUnits="userSpaceOnUse" x1="661.8099" y1="345.9369" x2="707.0071" y2="267.0218" gradientTransform="matrix(0.7104 -0.7038 0.7038 0.7104 -56.498 416.1743)">
		<stop  offset="0" style="stop-color:#FCEA10"/>
		<stop  offset="0.1278" style="stop-color:#FADB1E"/>
		<stop  offset="0.4013" style="stop-color:#F4AE2B"/>
		<stop  offset="0.7957" style="stop-color:#E9562D"/>
		<stop  offset="0.9135" style="stop-color:#E6332A"/>
	</linearGradient>
	<path class="st1" d="M799.5,133.2C623.1,50.2,474,106.1,474,106.1"/>
	
		<linearGradient id="SVGID_3_" gradientUnits="userSpaceOnUse" x1="720.6042" y1="309.451" x2="689.2169" y2="412.0913" gradientTransform="matrix(0.7104 -0.7038 0.7038 0.7104 -56.498 416.1743)">
		<stop  offset="0" style="stop-color:#FCEA10"/>
		<stop  offset="0.1278" style="stop-color:#FADB1E"/>
		<stop  offset="0.4013" style="stop-color:#F4AE2B"/>
		<stop  offset="0.7957" style="stop-color:#E9562D"/>
		<stop  offset="0.9135" style="stop-color:#E6332A"/>
	</linearGradient>
	<path class="st2" d="M800,136.2l-193.7,71.1c30.6,39.9,41.4,84.1,46,115.7"/>
	
		<linearGradient id="SVGID_4_" gradientUnits="userSpaceOnUse" x1="710.1859" y1="343.5204" x2="685.6966" y2="423.6032" gradientTransform="matrix(0.7104 -0.7038 0.7038 0.7104 -56.498 416.1743)">
		<stop  offset="0" style="stop-color:#FCEA10"/>
		<stop  offset="0.1278" style="stop-color:#FADB1E"/>
		<stop  offset="0.4013" style="stop-color:#F4AE2B"/>
		<stop  offset="0.7957" style="stop-color:#E9562D"/>
		<stop  offset="0.9135" style="stop-color:#E6332A"/>
	</linearGradient>
	<path class="st3" d="M652.3,323c88-78.8,147.7-186.8,147.7-186.8"/>
</g>
<g class="st4">
	<path class="st5" d="M134.3,632.7c0,0,245.7,91.2,444.7-165.5C727.1,221.4,405.2-22.5,210.2,191.2
		C22.3,409.9,134.3,632.7,134.3,632.7z"/>
</g>
<g class="st4">
	<path class="st6" d="M414.1,726.8c0,0,238.3-109.2,197.4-431.5c-24-117.2-129.8-182.9-216.8-185.9
		c-116.2-7.1-246.5,88.9-239.1,251.5C177.4,648.4,414.1,726.8,414.1,726.8z"/>
</g>
<g class="st4">
	<path class="st7" d="M0,369c0,0,109.2,238.3,431.5,197.4c117.2-24,182.9-129.8,185.9-216.8c7.1-116.2-88.9-246.5-251.5-239.1
		C78.4,132.3,0,369,0,369z"/>
</g>
<g>
	
		<ellipse transform="matrix(0.9718 -0.2356 0.2356 0.9718 -59.0446 110.4886)" class="st8" cx="432.8" cy="302.3" rx="49.7" ry="70.1"/>
</g>
<g class="st4">
	<path class="st7" d="M381.9,285.6c0,0,68.8-39.5,68.2,84.6c0,0-15.1,5.7-33.1-6.3C400.6,353.8,379.6,323.9,381.9,285.6z"/>
</g>
<g>
	<path class="st9" d="M400.1,333.6c24.6-13.2,34.2-17.8,34.2-17.8s-13-34.9-34.2-25.4C378.8,299.9,400.1,333.6,400.1,333.6z"/>
</g>
</svg>
